<?xml version="1.0" encoding="UTF-8"?>
<svg width="550px" height="185px" viewBox="0 0 550 185" version="1.1" xmlns="http://www.w3.org/2000/svg" xmlns:xlink="http://www.w3.org/1999/xlink">
    <!-- Generator: Sketch 53.1 (72631) - https://sketchapp.com -->
    <title>Logos / Brand / Hermes logo colour</title>
    <desc>Created with Sketch.</desc>
    <g id="Logos-/-Brand-/-Hermes-logo-colour" stroke="none" stroke-width="1" fill="none" fill-rule="evenodd">
        <polyline id="Shape" fill="#D8D8D6" points="141.365714 49 147 26 135.731429 26 130 49 141.365714 49"></polyline>
        <polygon id="Shape" fill="#D8D8D6" points="123 78 135.034286 78 141 55 128.965714 55"></polygon>
        <polygon id="Shape" fill="#D8D8D6" points="116 107 127.931429 107 134 84 121.965714 84"></polygon>
        <polygon id="Shape" fill="#0091CD" points="131 26 16 26 16 30.9 35.2334495 49 125.089721 49"></polygon>
        <polygon id="Shape" fill="#0091CD" points="77 84 77 87.7 97.1450382 107 110.244275 107 116 84"></polygon>
        <polygon id="Shape" fill="#0091CD" points="124 55 46 55 46 58.7 66.4046392 78 118.170103 78"></polygon>
        <path d="M532,42.9006369 L530.000832,50.3477707 C529.101206,53.7694268 527.501872,55.077707 523.503536,55.077707 L512.108277,55.077707 C507.010399,55.077707 505.311106,55.3796178 503.911688,56.6878981 C502.912104,57.6942675 502.312354,59.5057325 502.312354,61.1159236 C502.312354,63.0280255 503.112021,63.7324841 506.010815,64.6382166 L517.60599,68.0598726 C525.502704,70.3745223 527.901705,72.8904459 527.801747,79.0292994 C527.701789,85.1681529 525.402745,94.8292994 521.904201,99.2573248 C518.605574,103.584713 514.307362,105.496815 507.710108,105.496815 L479.521837,105.496815 C477.322752,105.496815 476.523085,103.785987 476.82296,102.175796 C476.82296,102.175796 480.421463,88.0866242 480.421463,88.0866242 L482.020797,88.0866242 C482.920423,91.3070064 485.01955,92.2127389 491.316929,92.2127389 L502.312354,92.2127389 C506.410648,92.2127389 508.409816,91.6089172 509.609317,90.0993631 C510.808818,88.7910828 511.508527,86.677707 511.608485,84.966879 C511.708444,82.3503185 510.70886,81.6458599 505.111189,80.1363057 L494.41564,77.2178344 C488.218219,75.6076433 485.519342,72.3872611 485.6193,67.1541401 C485.719258,62.3235669 487.818385,55.1783439 490.517262,50.5490446 C493.715931,45.0140127 498.513934,42.9006369 507.110357,42.9006369 L532,42.9006369 Z M257.414261,42.2968153 C244.619586,42.2968153 237.42258,45.1146497 231.624993,52.3605096 C226.027322,59.6063694 220.429652,77.4191083 220.229735,88.7910828 C220.129776,95.7350318 222.728695,101.169427 227.42674,103.584713 C230.625409,105.194904 235.823246,106 244.31971,106 C253.515884,106 259.213513,105.194904 262.212265,103.584713 C264.41135,102.276433 264.911142,101.370701 266.510476,95.0305732 L268.80952,86.4764331 L267.410102,86.4764331 C263.611682,90.9044586 259.213513,92.8165605 248.617922,92.8165605 C243.320126,92.8165605 240.321374,92.3133758 238.921956,91.3070064 C237.022747,90.0993631 236.323038,88.2878981 236.323038,85.7719745 C236.323038,84.6649682 236.622913,83.256051 236.82283,82.0484076 L237.922372,77.1171975 L264.711225,77.1171975 C270.508812,77.1171975 272.308064,76.5133758 273.507565,74.2993631 C275.106899,71.0789809 276.706234,63.2292994 276.806192,58.3987261 C277.206026,47.1273885 271.408438,42.2968153 257.414261,42.2968153 L257.414261,42.2968153 Z M262.312223,66.6509554 L240.921125,66.6509554 C243.71996,56.6878981 246.918629,53.5681529 254.815343,53.5681529 C260.712889,53.5681529 263.511724,55.6815287 263.411766,60.2101911 C263.411766,62.0216561 263.211849,63.5312102 262.312223,66.6509554 L262.312223,66.6509554 Z M455.231945,42.2968153 C442.437269,42.2968153 435.240264,45.1146497 429.442676,52.3605096 C423.845006,59.6063694 418.247335,77.4191083 418.147377,88.7910828 C418.047418,95.7350318 420.546378,101.169427 425.344382,103.584713 C428.543051,105.194904 433.740888,106 442.237352,106 C451.433526,106 457.131155,105.194904 460.129907,103.584713 C462.328992,102.276433 462.828784,101.370701 464.428118,95.0305732 L466.627203,86.4764331 L465.227785,86.4764331 C461.429366,90.9044586 457.031196,92.8165605 446.435605,92.8165605 C441.13781,92.8165605 438.139058,92.3133758 436.73964,91.3070064 C434.940389,90.0993631 434.140721,88.2878981 434.140721,85.7719745 C434.140721,84.6649682 434.440597,83.256051 434.640513,82.0484076 L435.740056,77.1171975 L462.628867,77.1171975 C468.426454,77.1171975 470.225706,76.5133758 471.425207,74.2993631 C473.024541,71.0789809 474.723834,63.2292994 474.723834,58.3987261 C475.123668,47.1273885 469.226122,42.2968153 455.231945,42.2968153 L455.231945,42.2968153 Z M460.129907,66.6509554 L438.738808,66.6509554 C441.537643,56.6878981 444.736312,53.5681529 452.633026,53.5681529 C458.530572,53.5681529 461.329408,55.6815287 461.229449,60.2101911 C461.329408,62.0216561 461.029532,63.5312102 460.129907,66.6509554 L460.129907,66.6509554 Z M329.384313,42.9006369 L327.285186,51.1528662 C326.385561,54.5745223 324.886185,55.5808917 320.18814,55.5808917 L314.090677,55.5808917 C307.493422,55.5808917 305.394296,57.3923567 303.595045,64.9401274 L294.998622,98.3515924 C294.598788,99.8611465 294.398871,101.169427 294.298913,101.773248 C294.298913,103.081529 294.998622,103.785987 296.398039,104.289172 L296.098164,105.597452 L280.804528,105.597452 C278.605443,105.597452 277.805776,103.886624 278.105651,102.276433 C278.105651,102.276433 291.899911,48.033121 291.899911,48.033121 C291.99987,47.7312102 292.099828,47.2280255 292.199786,46.7248408 C292.199786,45.4165605 291.500077,44.7121019 290.10066,44.3095541 L290.500493,43.0012739 L305.694171,43.0012739 C307.893256,43.0012739 308.692923,44.7121019 308.393048,46.322293 C308.393048,46.322293 306.893672,51.9579618 306.893672,51.9579618 L311.3918,45.8191083 C313.29101,43.1019108 313.690843,43.0012739 317.489263,43.0012739 L329.384313,43.0012739 L329.384313,42.9006369 Z M222.728695,30.4216561 C222.728695,30.4216561 210.933603,76.5133758 205.535849,97.5464968 C204.936099,99.9617834 204.036473,102.980892 207.035225,103.886624 C206.835308,104.389809 206.73535,104.892994 206.535433,105.396178 L189.442546,105.396178 C187.243461,105.396178 186.443794,103.68535 186.743669,102.075159 L195.44005,68.3617834 L172.049783,68.3617834 C172.049783,68.3617834 166.052279,91.910828 164.652862,97.4458599 C164.253028,98.955414 163.953153,100.263694 163.953153,100.968153 C163.953153,102.37707 164.652862,103.282803 165.952321,103.785987 C165.852362,104.289172 165.752404,104.792357 165.552487,105.295541 L148.759475,105.295541 C146.56039,105.295541 145.760723,103.584713 146.060598,101.974522 C146.060598,101.974522 157.85569,55.8828025 163.253444,34.8496815 C163.753236,32.4343949 164.75282,29.6165605 161.754068,28.6101911 C161.854026,28.1070064 162.053943,27.5031847 162.153901,27 L179.346747,27 C181.545832,27 182.345499,28.710828 182.045624,30.3210191 C182.045624,30.3210191 175.548328,55.7821656 175.548328,55.7821656 L198.738678,55.7821656 C198.738678,55.7821656 202.33718,41.8942675 204.136431,34.8496815 C204.536265,33.2394904 204.736182,32.1324841 204.736182,31.3273885 C204.736182,29.9184713 204.036473,29.1133758 202.537097,28.6101911 C202.637055,28.1070064 202.836972,27.5031847 202.936931,27 L220.129776,27 C222.228903,27.1006369 223.02857,28.811465 222.728695,30.4216561 L222.728695,30.4216561 Z M402.953699,42.3974522 L394.75711,42.3974522 C390.458898,42.3974522 388.159855,43.3031847 385.36102,47.5299363 L382.262309,52.3605096 C382.562184,47.4292994 379.863308,42.3974522 371.666718,42.3974522 L364.06988,42.3974522 C357.672542,42.3974522 356.173166,45.1146497 354.573831,47.0267516 L350.975328,51.8573248 C350.975328,51.8573248 352.474705,46.2216561 352.474705,46.2216561 C352.77458,44.611465 351.974913,42.9006369 349.775828,42.9006369 L334.482192,42.9006369 L334.182316,44.2089172 C335.581734,44.7121019 336.181485,45.4165605 336.181485,46.6242038 C336.181485,47.1273885 336.181485,47.5299363 335.981568,47.9324841 C335.981568,47.9324841 322.287266,102.175796 322.287266,102.175796 C321.987391,103.785987 322.787058,105.496815 324.986143,105.496815 L340.279779,105.496815 L340.679613,104.188535 C339.180237,103.68535 338.580486,102.980892 338.580486,101.672611 C338.580486,101.06879 338.880361,99.7605096 339.180237,98.2509554 C339.180237,98.2509554 347.576743,66.2484076 347.77666,65.0407643 C349.775828,56.6878981 352.074871,55.6815287 356.473041,55.1783439 C357.372666,55.077707 358.172334,55.077707 359.571751,55.077707 C363.969921,55.077707 365.169422,57.6942675 364.569672,60.7133758 C364.169838,62.4242038 354.074039,102.075159 354.074039,102.075159 C353.774164,103.68535 354.573831,105.396178 356.772916,105.396178 L372.066552,105.396178 L372.466386,104.087898 C371.066968,103.584713 370.367259,102.880255 370.467217,101.571975 C370.467217,100.968153 370.767093,99.6598726 371.066968,98.1503185 C371.066968,98.1503185 379.663391,65.2420382 379.663391,64.9401274 C381.862476,56.6878981 384.061561,55.5808917 388.45973,55.077707 C389.359356,54.9770701 390.159023,54.9770701 391.658399,54.9770701 C396.056569,54.9770701 397.25607,57.5936306 396.65632,60.6127389 C396.556361,61.1159236 386.260645,101.974522 386.260645,101.974522 C385.96077,103.584713 386.760437,105.295541 388.959522,105.295541 L404.253158,105.295541 L404.652992,103.987261 C403.153616,103.484076 402.553865,102.779618 402.553865,101.471338 C402.553865,100.867516 402.853741,99.5592357 403.253574,98.0496815 C403.253574,98.0496815 413.149456,58.1974522 413.949124,54.5745223 C414.848749,51.0522293 414.748791,42.3974522 402.953699,42.3974522 L402.953699,42.3974522 Z" id="Shape" fill="#000000"></path>
        <path d="M142.970588,145.546218 C142.867647,145.94958 142.867647,146.252101 142.867647,146.554622 C142.867647,148.87395 144.720588,149.378151 147.088235,149.378151 C147.705882,149.378151 148.117647,149.378151 148.838235,149.277311 L148.426471,151.798319 C147.808824,151.89916 147.088235,152 146.264706,152 C143.073529,152 139.985294,150.890756 139.985294,146.957983 C139.985294,146.554622 139.985294,146.05042 140.088235,145.445378 L141.735294,135.966387 L137,135.966387 L137.720588,133.344538 L142.147059,133.344538 L143.073529,128 L146.058824,128 L145.132353,133.344538 L151,133.344538 L150.279412,135.966387 L144.720588,135.966387 L142.970588,145.546218 Z" id="Shape" fill="#000000" fill-rule="nonzero"></path>
        <path d="M169,139.787234 C169,140.382979 168.900585,140.978723 168.80117,141.77305 L167.011696,152 L164.128655,152 L165.918129,141.673759 C166.017544,141.078014 166.116959,140.680851 166.116959,140.184397 C166.116959,137.801418 164.526316,136.411348 162.140351,136.411348 C159.45614,136.411348 157.269006,138 156.77193,140.879433 L154.883041,152 L152,152 L156.871345,124 L159.754386,124 L157.766082,135.716312 C159.05848,134.524823 160.847953,133.730496 162.836257,133.730496 C166.614035,133.829787 169,136.312057 169,139.787234 Z" id="Shape" fill="#000000" fill-rule="nonzero"></path>
        <path d="M189.491525,143.409574 L174.949153,143.409574 C175.152542,147.047872 177.694915,149.271277 181.355932,149.271277 C183.694915,149.271277 185.423729,148.361702 187.050847,147.047872 L188.576271,149.069149 C186.644068,150.888298 184,152 181.152542,152 C175.762712,152 172,148.159574 172,143.106383 C172,137.648936 176.474576,133 182.067797,133 C186.644068,133 190,136.132979 190,140.680851 C190,141.893617 189.79661,142.803191 189.491525,143.409574 Z M175.254237,140.882979 L187.050847,140.882979 L187.050847,140.579787 C187.050847,137.446809 184.813559,135.728723 181.864407,135.728723 C178.610169,135.62766 176.067797,137.75 175.254237,140.882979 Z" id="Shape" fill="#000000" fill-rule="nonzero"></path>
        <path d="M225,141.565737 C225,146.346614 221.418605,151.625498 214.972093,151.625498 C211.390698,151.625498 208.934884,149.932271 207.809302,147.940239 L205.967442,158 L203,158 L207.4,133.398406 L210.162791,133.398406 L209.753488,135.988048 C211.390698,133.996016 213.948837,133 216.506977,133 C221.623256,133 225,136.884462 225,141.565737 Z M222.032558,141.864542 C222.032558,138.577689 219.67907,135.689243 215.790698,135.689243 C211.083721,135.689243 208.730233,139.972112 208.730233,143.358566 C208.730233,146.944223 211.493023,149.135458 214.767442,149.135458 C218.962791,149.035857 222.032558,145.649402 222.032558,141.864542 Z" id="Shape" fill="#000000" fill-rule="nonzero"></path>
        <path d="M243,138.934758 C243,139.547192 242.902439,140.159625 242.804878,140.87413 L241.04878,151.591711 L238.414634,151.591711 L238.707317,149.652339 C237.243902,151.08135 235.195122,152 232.95122,152 C230.02439,152 227,150.468917 227,147.100534 C227,144.344585 228.95122,141.588636 234.219512,141.588636 L239.878049,141.588636 L239.97561,140.976202 C240.073171,140.261697 240.073171,139.751336 240.073171,139.343047 C240.073171,136.791242 238.317073,135.668448 235.97561,135.668448 C233.731707,135.668448 232.268293,136.68917 230.804878,138.016109 L229.439024,135.872592 C231.487805,133.933221 233.731707,133.014571 236.365854,133.014571 C240.073171,132.810426 243,134.749798 243,138.934758 Z M239.292683,145.161163 L239.487805,143.936296 L234.317073,143.936296 C231.195122,143.936296 229.926829,145.05909 229.926829,146.692246 C229.926829,148.835762 231.878049,149.550267 233.634146,149.550267 C236.560976,149.550267 238.902439,147.508823 239.292683,145.161163 Z" id="Shape" fill="#000000" fill-rule="nonzero"></path>
        <path d="M260,134.395604 L259.590551,136.868132 C258.874016,136.769231 258.362205,136.67033 257.952756,136.67033 C255.188976,136.67033 252.425197,138.351648 251.811024,141.714286 L249.968504,152 L247,152 L250.173228,134.197802 L252.937008,134.197802 L252.629921,136.175824 C254.165354,134.692308 256.110236,134 258.15748,134 C258.669291,134.098901 259.283465,134.098901 260,134.395604 Z" id="Shape" fill="#000000" fill-rule="nonzero"></path>
        <path d="M279,137.446809 L276.762712,138.962766 C275.542373,137.042553 273.610169,135.728723 271.169492,135.728723 C267.20339,135.728723 263.949153,138.861702 263.949153,143.005319 C263.949153,146.643617 266.59322,149.37234 270.254237,149.37234 C272.59322,149.37234 274.627119,148.260638 275.847458,146.744681 L277.779661,148.361702 C275.949153,150.68617 273.305085,152 270.152542,152 C264.966102,152 261,148.260638 261,143.106383 C261,137.446809 265.677966,133 271.271186,133 C274.728814,133.101064 277.474576,134.819149 279,137.446809 Z" id="Shape" fill="#000000" fill-rule="nonzero"></path>
        <path d="M299.389831,143.409574 L284.847458,143.409574 C285.050847,147.047872 287.59322,149.271277 291.355932,149.271277 C293.694915,149.271277 295.423729,148.361702 297.050847,147.047872 L298.576271,149.069149 C296.644068,150.888298 294,152 291.152542,152 C285.762712,152 282,148.159574 282,143.106383 C282,137.648936 286.474576,133 292.067797,133 C296.644068,133 300,136.132979 300,140.680851 C299.79661,141.893617 299.59322,142.803191 299.389831,143.409574 Z M285.050847,140.882979 L296.847458,140.882979 L296.847458,140.579787 C296.847458,137.446809 294.610169,135.728723 291.661017,135.728723 C288.508475,135.62766 285.864407,137.75 285.050847,140.882979 Z" id="Shape" fill="#000000" fill-rule="nonzero"></path>
        <polygon id="Shape" fill="#000000" fill-rule="nonzero" points="305.974359 152 303 152 308.025641 124 311 124"></polygon>
        <path d="M343,141.565737 C343,146.346614 339.418605,151.625498 332.972093,151.625498 C329.390698,151.625498 326.934884,149.932271 325.809302,147.940239 L323.967442,158 L321,158 L325.4,133.398406 L328.162791,133.398406 L327.753488,135.988048 C329.390698,133.996016 331.948837,133 334.506977,133 C339.623256,133 343,136.884462 343,141.565737 Z M340.032558,141.864542 C340.032558,138.577689 337.67907,135.689243 333.790698,135.689243 C329.083721,135.689243 326.730233,139.972112 326.730233,143.358566 C326.730233,146.944223 329.493023,149.135458 332.767442,149.135458 C336.962791,149.035857 340.032558,145.649402 340.032558,141.864542 Z" id="Shape" fill="#000000" fill-rule="nonzero"></path>
        <path d="M364.389831,143.409574 L349.847458,143.409574 C350.050847,147.047872 352.59322,149.271277 356.355932,149.271277 C358.694915,149.271277 360.423729,148.361702 362.050847,147.047872 L363.576271,149.069149 C361.644068,150.888298 359,152 356.152542,152 C350.762712,152 347,148.159574 347,143.106383 C347,137.648936 351.474576,133 357.067797,133 C361.644068,133 365,136.132979 365,140.680851 C364.79661,141.893617 364.59322,142.803191 364.389831,143.409574 Z M350.050847,140.882979 L361.847458,140.882979 L361.847458,140.579787 C361.847458,137.446809 359.610169,135.728723 356.661017,135.728723 C353.508475,135.62766 350.864407,137.75 350.050847,140.882979 Z" id="Shape" fill="#000000" fill-rule="nonzero"></path>
        <path d="M387,142.095745 C387,147.654255 382.348958,152 376.90625,152 C371.760417,152 368,148.058511 368,143.005319 C368,137.446809 372.651042,133 377.994792,133 C383.140625,133.101064 387,137.042553 387,142.095745 Z M370.96875,143.106383 C370.96875,146.744681 373.541667,149.37234 377.104167,149.37234 C380.963542,149.37234 384.130208,146.138298 384.130208,142.196809 C384.130208,138.558511 381.458333,135.829787 377.994792,135.829787 C374.036458,135.728723 370.96875,139.06383 370.96875,143.106383 Z" id="Shape" fill="#000000" fill-rule="nonzero"></path>
        <path d="M410,141.565737 C410,146.346614 406.549296,151.625498 400.43662,151.625498 C396.985915,151.625498 394.619718,149.932271 393.535211,147.940239 L391.760563,158 L389,158 L393.239437,133.398406 L395.901408,133.398406 L395.507042,135.988048 C397.084507,133.996016 399.549296,133 402.014085,133 C406.84507,133 410,136.884462 410,141.565737 Z M407.140845,141.864542 C407.140845,138.577689 404.873239,135.689243 401.126761,135.689243 C396.591549,135.689243 394.323944,139.972112 394.323944,143.358566 C394.323944,146.944223 396.985915,149.135458 400.140845,149.135458 C404.183099,149.035857 407.140845,145.649402 407.140845,141.864542 Z" id="Shape" fill="#000000" fill-rule="nonzero"></path>
        <polygon id="Shape" fill="#000000" fill-rule="nonzero" points="416.974359 152 414 152 419.025641 124 422 124"></polygon>
        <path d="M440.389831,143.409574 L425.847458,143.409574 C426.050847,147.047872 428.59322,149.271277 432.355932,149.271277 C434.694915,149.271277 436.423729,148.361702 438.050847,147.047872 L439.576271,149.069149 C437.644068,150.888298 435,152 432.152542,152 C426.762712,152 423,148.159574 423,143.106383 C423,137.648936 427.474576,133 433.067797,133 C437.644068,133 441,136.132979 441,140.680851 C440.898305,141.893617 440.694915,142.803191 440.389831,143.409574 Z M426.152542,140.882979 L437.949153,140.882979 L437.949153,140.579787 C437.949153,137.446809 435.711864,135.728723 432.762712,135.728723 C429.610169,135.62766 426.966102,137.75 426.152542,140.882979 Z" id="Shape" fill="#000000" fill-rule="nonzero"></path>
    </g>
</svg>