<?xml version="1.0" encoding="utf-8"?>
<!-- Generator: Adobe Illustrator 23.0.5, SVG Export Plug-In . SVG Version: 6.00 Build 0)  -->
<svg version="1.1" id="Layer_2" xmlns="http://www.w3.org/2000/svg" xmlns:xlink="http://www.w3.org/1999/xlink" x="0px" y="0px"
	 viewBox="0 0 320.6 42" style="enable-background:new 0 0 320.6 42;" xml:space="preserve">
<style type="text/css">
	.st0{fill:#1E2323;}
	.st1{fill:#1E2323;}
</style>
<g>
	<g>
		<path class="st0" d="M193.9,14.1h-3.3c-2.1,0-3.9,0.7-5.2,2c-1.3,1.3-2,3-2,5.2v6c0,2,0.7,3.7,2,4.9c1.3,1.2,3,1.9,5.2,1.9h3.1
			c2.1,0,3.8-0.6,5.1-1.7c1.3-1.1,1.9-2.7,1.9-4.5h-2.1c0,1.3-0.5,2.4-1.4,3.2c-0.9,0.8-2.1,1.2-3.6,1.2h-3.1
			c-1.5,0-2.7-0.5-3.6-1.4c-0.9-0.9-1.4-2.1-1.4-3.6v-2.9h15.2v-3.3c0-2.1-0.6-3.8-1.9-5.1C197.6,14.7,195.9,14.1,193.9,14.1z
			 M198.6,22.5h-13v-1.3c0-1.6,0.5-2.8,1.4-3.8c0.9-1,2.1-1.5,3.6-1.5h3.3c1.4,0,2.6,0.5,3.4,1.4c0.9,0.9,1.3,2.2,1.3,3.7V22.5z"/>
		<polygon class="st0" points="220.7,14.4 218.2,14.4 212.2,22.2 206.2,14.4 203.7,14.4 210.9,23.8 203.3,33.7 205.8,33.7 
			212.2,25.4 218.6,33.7 221,33.7 213.4,23.8 		"/>
		<path class="st0" d="M234.3,14.1h-3c-1,0-2,0.3-3,0.9c-1,0.6-1.8,1.4-2.4,2.4v-3h-2.1v27h2.2V31c0.6,0.9,1.4,1.6,2.3,2.2
			c0.9,0.5,1.9,0.8,2.9,0.8h3c2.1,0,3.9-0.7,5.1-2.1c1.3-1.4,1.9-3.3,1.9-5.6V21c0-2.1-0.6-3.8-1.9-5
			C238,14.7,236.3,14.1,234.3,14.1z M239,26.3c0,1.8-0.4,3.2-1.3,4.2c-0.9,1.1-2.1,1.6-3.6,1.6h-2.9c-1.3,0-2.4-0.5-3.4-1.5
			c-1-1-1.6-2.1-1.8-3.4v-6.7c0.4-1.3,1.1-2.4,2.1-3.3c1-0.9,2.1-1.4,3.3-1.4h2.9c1.4,0,2.6,0.5,3.5,1.4s1.3,2.2,1.3,3.7V26.3z"/>
		<path class="st0" d="M271.8,14.1h-3.3c-2.1,0-3.9,0.7-5.2,2c-1.3,1.3-2,3-2,5.2v6c0,2,0.7,3.7,2,4.9c1.3,1.2,3,1.9,5.2,1.9h3.1
			c2.1,0,3.8-0.6,5.1-1.7c1.3-1.1,1.9-2.7,1.9-4.5h-2.1c0,1.3-0.5,2.4-1.4,3.2c-0.9,0.8-2.1,1.2-3.6,1.2h-3.1
			c-1.5,0-2.7-0.5-3.6-1.4c-0.9-0.9-1.4-2.1-1.4-3.6v-2.9h15.2v-3.3c0-2.1-0.6-3.8-1.9-5.1C275.5,14.7,273.9,14.1,271.8,14.1z
			 M276.5,22.5h-13v-1.3c0-1.6,0.5-2.8,1.4-3.8c0.9-1,2.1-1.5,3.6-1.5h3.3c1.4,0,2.6,0.5,3.4,1.4c0.9,0.9,1.3,2.2,1.3,3.7V22.5z"/>
		<path class="st0" d="M295.6,23.7l-7.1-1.2c-0.8-0.1-1.4-0.4-1.9-0.8c-0.5-0.5-0.7-1-0.7-1.6v-1.2c0-0.9,0.4-1.6,1.1-2.2
			c0.7-0.6,1.7-0.8,2.9-0.8h3.5c1.1,0,2.1,0.3,2.8,1c0.7,0.6,1.1,1.5,1.1,2.6h2.1c0-1.6-0.5-2.9-1.7-3.9c-1.1-1-2.5-1.5-4.3-1.5
			h-3.5c-1.8,0-3.3,0.4-4.5,1.3c-1.1,0.9-1.7,2.1-1.7,3.5v1.3c0,1,0.4,1.9,1.2,2.7c0.8,0.8,1.9,1.2,3.2,1.5l7.1,1.2
			c0.7,0.1,1.3,0.4,1.7,0.9c0.4,0.4,0.7,0.9,0.7,1.5v1.5c0,0.8-0.4,1.5-1.2,2c-0.8,0.5-1.9,0.8-3.2,0.8h-3.5c-1.3,0-2.3-0.4-3.1-1.1
			c-0.8-0.7-1.2-1.7-1.2-2.9h-2.1c0,1.8,0.6,3.2,1.8,4.2c1.2,1.1,2.7,1.6,4.7,1.6h3.5c2,0,3.6-0.4,4.8-1.3c1.2-0.8,1.8-1.9,1.8-3.3
			v-1.6c0-1-0.4-1.9-1.1-2.7C297.8,24.4,296.8,23.9,295.6,23.7z"/>
		<path class="st0" d="M319.5,25.1c-0.8-0.7-1.8-1.2-3-1.4l-7.1-1.2c-0.8-0.1-1.4-0.4-1.9-0.8c-0.5-0.5-0.7-1-0.7-1.6v-1.2
			c0-0.9,0.4-1.6,1.1-2.2c0.7-0.6,1.7-0.8,2.9-0.8h3.5c1.1,0,2.1,0.3,2.8,1c0.7,0.6,1.1,1.5,1.1,2.6h2.1c0-1.6-0.5-2.9-1.7-3.9
			c-1.1-1-2.5-1.5-4.3-1.5h-3.5c-1.8,0-3.3,0.4-4.5,1.3c-1.1,0.9-1.7,2.1-1.7,3.5v1.3c0,1,0.4,1.9,1.2,2.7c0.8,0.8,1.9,1.2,3.2,1.5
			l7.1,1.2c0.7,0.1,1.3,0.4,1.7,0.9c0.4,0.4,0.7,0.9,0.7,1.5v1.5c0,0.8-0.4,1.5-1.2,2c-0.8,0.5-1.9,0.8-3.2,0.8h-3.5
			c-1.3,0-2.3-0.4-3.1-1.1c-0.8-0.7-1.2-1.7-1.2-2.9h-2.1c0,1.8,0.6,3.2,1.8,4.2c1.2,1.1,2.7,1.6,4.7,1.6h3.5c2,0,3.6-0.4,4.8-1.3
			c1.2-0.8,1.8-1.9,1.8-3.3v-1.6C320.6,26.8,320.3,25.9,319.5,25.1z"/>
		<rect x="53.9" y="13.2" class="st0" width="4.6" height="19.8"/>
		<path class="st0" d="M86.5,12.8h-2.3c-0.9,0-1.8,0.3-2.6,0.8c-0.8,0.5-1.5,1.2-2.1,2.2c-0.4-0.9-1.1-1.6-1.9-2.2S76,12.8,75,12.8
			h-2.3c-0.8,0-1.6,0.3-2.3,0.8c-0.8,0.5-1.4,1.2-1.9,2.1v-2.5h-4.2V33h4.6V21c0.2-1.2,0.6-2.3,1.2-3c0.6-0.8,1.4-1.2,2.3-1.2h1.8
			c0.7,0,1.2,0.3,1.6,0.8s0.6,1.3,0.6,2.2V33h4.5V20.3c0.2-1.1,0.6-1.9,1.2-2.5c0.6-0.6,1.3-0.9,2.2-0.9h1.9c0.7,0,1.2,0.3,1.6,0.8
			s0.6,1.2,0.6,2.1V33h4.6V19.7c0-2.1-0.6-3.8-1.7-5C90,13.5,88.4,12.8,86.5,12.8z"/>
		<path class="st0" d="M109.3,12.8h-2.6c-0.8,0-1.7,0.2-2.6,0.7c-0.9,0.5-1.6,1.1-2.2,1.9v-2.3h-4.2v27.7h4.6v-9.7
			c0.5,0.6,1.2,1.1,2,1.5c0.8,0.4,1.6,0.6,2.4,0.6h2.7c2.3,0,4.2-0.8,5.6-2.3c1.4-1.5,2.1-3.5,2.1-6v-4.6c0-2.3-0.7-4.1-2.1-5.5
			C113.4,13.5,111.6,12.8,109.3,12.8z M112.4,24.7c0,1.4-0.3,2.5-1,3.3c-0.7,0.8-1.6,1.3-2.6,1.3h-2.5c-1.1,0-2-0.4-2.7-1.2
			c-0.8-0.8-1.2-1.8-1.3-3v-4.6c0.3-1.1,0.9-2,1.6-2.7s1.6-1.1,2.5-1.1h2.5c1.1,0,2,0.4,2.6,1.1c0.7,0.7,1,1.7,1,2.8V24.7z"/>
		<path class="st0" d="M137.1,14.6c-1.3-1.2-3.1-1.8-5.3-1.8h-3.3c-2.2,0-4,0.6-5.3,1.7c-1.3,1.1-2,2.6-2,4.4h4.4
			c0-0.7,0.3-1.2,0.8-1.6c0.5-0.4,1.2-0.6,2.1-0.6h3.3c0.8,0,1.5,0.3,2.1,0.8c0.5,0.5,0.8,1.2,0.8,2v2.5c-0.7-0.3-1.4-0.6-2.3-0.8
			c-0.8-0.2-1.6-0.3-2.4-0.3h-2.5c-2.1,0-3.8,0.5-5,1.5c-1.3,1-1.9,2.3-1.9,4v1.4c0,1.7,0.6,3,1.8,4.1c1.2,1,2.8,1.5,4.9,1.5h2.5
			c0.9,0,1.9-0.3,2.8-0.8c1-0.5,1.7-1.2,2.4-2V33h4.2V19.4C139.1,17.4,138.5,15.9,137.1,14.6z M134.6,26.5c-0.3,1-0.9,1.8-1.8,2.4
			c-0.8,0.6-1.8,0.9-2.9,0.9h-2.3c-0.8,0-1.5-0.2-2-0.6c-0.5-0.4-0.8-0.9-0.8-1.6v-1.1c0-0.6,0.2-1.2,0.7-1.5
			c0.5-0.4,1.1-0.6,1.9-0.6h2.5c0.9,0,1.8,0.1,2.6,0.3c0.8,0.2,1.5,0.5,1.9,0.9V26.5z"/>
		<path class="st0" d="M156.7,28.3c-0.6,0.7-1.4,1.1-2.4,1.1h-3.1c-1.1,0-1.9-0.4-2.6-1.1c-0.6-0.7-1-1.7-1-2.9v-4.4
			c0-1.2,0.3-2.2,1-3c0.6-0.8,1.5-1.2,2.5-1.2h3.1c0.9,0,1.7,0.3,2.2,0.9c0.6,0.6,0.9,1.4,0.9,2.3h4.5c0-2.1-0.7-3.9-2.1-5.2
			c-1.4-1.3-3.2-2-5.5-2h-3.2c-1.6,0-3,0.3-4.2,1c-1.2,0.6-2.2,1.6-2.8,2.7c-0.7,1.2-1,2.5-1,4.1v5c0,2.3,0.7,4.2,2.2,5.6
			c1.5,1.4,3.4,2.1,5.8,2.1h3.2c2.3,0,4.2-0.7,5.6-2.1c1.4-1.4,2.1-3.3,2.1-5.6h-4.5C157.6,26.6,157.3,27.6,156.7,28.3z"/>
		<path class="st0" d="M176.2,28.3c0,1.3-1.1,2.3-2.3,2.3s-2.3-1.1-2.3-2.3V17.2h8v-3.8h-8V8.3h-5.2v5.1h-2.1v3.8h2.5l-0.2,10.4
			c0,3.8,2.9,6.7,6.7,6.7h0.6c3.8,0,6.6-2.1,6.6-6.6l0-2.4h-4.3V28.3z"/>
		<rect x="53.9" y="6" class="st0" width="4.6" height="4.6"/>
		<path class="st0" d="M254.4,14.3h-1.3c-1.1,0-2.2,0.3-3.1,0.9s-1.7,1.4-2.3,2.3v-3.1h-1.9v19.3h1.9V22c0-1.7,0.5-3.1,1.5-4.2
			c1-1.1,2.3-1.6,3.8-1.6h1.4c2.3-0.1,2.5,3.5,2.5,3.5h1.6C258.7,14.4,254.4,14.3,254.4,14.3z"/>
	</g>
	<g>
		<path class="st1" d="M12.9,4.5c-0.5,0.4-1,0.7-1.5,1.2c-0.8,0.7-2,0.7-2.8,0L8,5.1C7,4.3,7,2.7,8,1.8c0.6-0.5,1.2-1,1.9-1.5
			c0.8-0.6,1.9-0.5,2.6,0.1L13.1,1C14.2,2,14.1,3.7,12.9,4.5z"/>
		<path class="st1" d="M38.9,35.5c-4.5,4.4-10.7,7-17.6,6.5C9.9,41.2,0.6,31.9,0,20.4C-0.2,15.6,1,11,3.4,7.2C4.2,6,5.8,5.7,7,6.6
			l0.3,0.2c0.9,0.7,1.1,2,0.5,3c-2,3.3-3,7.2-2.5,11.5c1,8.2,7.6,14.7,15.8,15.5c5,0.5,9.7-1.1,13.2-4l-2.3-2
			c-2.5,1.9-5.6,3.1-9,3.1c-8.4,0-15.1-7-14.7-15.5c0.4-7.5,6.6-13.7,14.1-14c8.5-0.4,15.4,6.4,15.4,14.7c0,0.7-0.1,1.4-0.2,2.1h-15
			c-0.9,0-1.7-0.8-1.7-1.7v-1.1c0-0.9,0.8-1.7,1.7-1.7h9.8c-1.1-4.2-4.9-7.4-9.5-7.4c-5.8,0-10.4,5-9.7,10.9
			c0.5,4.5,4.1,8.1,8.6,8.6c3.3,0.4,6.4-0.9,8.4-3.2c0.6-0.7,1.6-0.8,2.2-0.2l2.5,2.2l2.3,2l1.5,1.3C40.1,32.1,40.2,34.2,38.9,35.5z
			"/>
	</g>
</g>
</svg>
